<?xml version="1.0" encoding="utf-8"?>
<!-- Generator: Adobe Illustrator 21.1.0, SVG Export Plug-In . SVG Version: 6.00 Build 0)  -->
<svg version="1.1" id="Layer_1" xmlns="http://www.w3.org/2000/svg" xmlns:xlink="http://www.w3.org/1999/xlink" x="0px" y="0px"
	 viewBox="0 0 100 100" style="enable-background:new 0 0 100 100;" xml:space="preserve">
<style type="text/css">
	.st0{fill:#F15C61;}
	.st1{fill:#FFFFFF;}
</style>
<path class="st0" d="M71,84H24c-3.3,0-6-2.7-6-6V42c0-3.3,2.7-6,6-6h47c3.3,0,6,2.7,6,6v36C77,81.3,74.3,84,71,84z"/>
<path class="st0" d="M29,46h-6c-2.8,0-5-2.2-5-5V22c0-2.8,2.2-5,5-5h6c2.8,0,5,2.2,5,5v19C34,43.8,31.8,46,29,46z"/>
<path class="st0" d="M28.6,44h43.8c3.7,0,5.4-4.6,2.6-7L53.1,17.7c-1.5-1.3-3.8-1.3-5.3,0L26,37C23.2,39.4,24.9,44,28.6,44z"/>
<path class="st1" d="M57,90H39c-2.8,0-5-2.2-5-5V55c0-2.8,2.2-5,5-5h18c2.8,0,5,2.2,5,5v30C62,87.8,59.8,90,57,90z"/>
<circle class="st0" cx="54" cy="68" r="3.5"/>
</svg>